<svg width="25" height="25" viewBox="0 0 25 25" fill="none" xmlns="http://www.w3.org/2000/svg">
<path fill-rule="evenodd" clip-rule="evenodd" d="M0.125 12.5001C0.125 18.6189 4.59375 23.7064 10.4375 24.7376L10.5065 24.6824C10.4835 24.678 10.4605 24.6734 10.4374 24.6688V15.9376H7.34369V12.5001H10.4374V9.75008C10.4374 6.65633 12.4312 4.93758 15.2499 4.93758C16.1437 4.93758 17.1062 5.07508 17.9999 5.21258V8.37508H16.4187C14.9062 8.37508 14.5624 9.13133 14.5624 10.0938V12.5001H17.8624L17.3124 15.9376H14.5624V24.6688C14.5395 24.6734 14.5165 24.678 14.4935 24.6824L14.5625 24.7376C20.4062 23.7064 24.875 18.6189 24.875 12.5001C24.875 5.69387 19.3062 0.125122 12.5 0.125122C5.69375 0.125122 0.125 5.69387 0.125 12.5001Z" fill="#1E232B"/>
</svg>
