<svg width="40" height="40" viewBox="0 0 40 40" fill="none" xmlns="http://www.w3.org/2000/svg">
<path fill-rule="evenodd" clip-rule="evenodd" d="M0 19.9806V39.9597H39.9597V0H0V19.9806ZM12.4194 12.0006C13.4194 12.0947 14.5666 12.4878 15.1944 12.9506C15.7837 13.385 16.2694 13.8769 16.5637 14.3397C16.825 14.7497 16.87 14.8278 16.8981 14.9209C16.9153 14.9756 16.9506 15.0562 16.9775 15.1C17.0581 15.2294 17.2803 15.9412 17.3437 16.2731C17.3766 16.4419 17.4231 16.67 17.4462 16.7797C17.5012 17.0384 17.5025 18.8378 17.4475 19.1003C17.4244 19.2103 17.3766 19.4347 17.3425 19.5997C17.2753 19.9231 17.0909 20.4625 16.9594 20.7203C16.8847 20.8678 16.8666 20.88 16.7091 20.88C16.4234 20.8812 16.0362 20.9594 15.8119 21.0619C15.6947 21.1156 15.5884 21.1597 15.5762 21.1597C15.5212 21.1597 14.9669 21.6137 14.8559 21.7481C14.5228 22.1569 14.3225 22.645 14.2847 23.1409C14.27 23.3253 14.2494 23.4816 14.2394 23.4887C14.1847 23.5291 13.5841 23.7622 13.3397 23.8391C12.5991 24.0709 12.2459 24.0944 9.35062 24.11L6.67969 24.1234V11.9603H9.32969C10.8312 11.9603 12.1703 11.9775 12.4194 12.0009M21.9994 17.7697C21.9984 23.7097 21.9872 24.1847 21.8444 24.5216C21.8212 24.5753 21.775 24.7303 21.7406 24.8644C21.7078 25 21.6531 25.1625 21.62 25.2247C21.5869 25.2881 21.56 25.3566 21.56 25.3759C21.56 25.4197 21.2841 25.9972 21.2341 26.0572C21.2147 26.0803 21.1216 26.2172 21.0291 26.36C20.1891 27.6512 18.7316 28.3544 16.8641 28.3716C16.1656 28.3778 15.3331 28.2569 15.1403 28.1216C15.1184 28.1066 15.0197 28.0641 14.9194 28.0272C13.7912 27.6084 12.51 26.3331 12.3366 25.4553C12.3119 25.3309 12.3119 25.3309 12.5256 25.3041C12.8053 25.2684 13.5462 25.0903 13.7 25.0231C13.7656 24.9937 13.8916 24.9462 13.9794 24.9181C14.0675 24.89 14.2297 24.8253 14.3397 24.7744C14.5812 24.6619 14.6669 24.6569 14.6972 24.7522C14.7522 24.9269 15.3003 25.4078 15.6322 25.5737C17.1509 26.3306 18.9478 25.3566 19.2003 23.64C19.2187 23.5194 19.2347 20.8409 19.2372 17.6903L19.2394 11.9603H21.9994V17.7697ZM30.2453 12.0019C30.4734 12.0237 30.7228 12.0631 30.7997 12.0875C30.8753 12.1119 31.0731 12.1644 31.2391 12.2022C32.0556 12.3937 32.9822 12.8516 33.7378 13.4375C34.0297 13.6647 34.32 13.9406 34.32 13.9916C34.32 14.0272 34.065 14.3787 33.96 14.4897C33.9269 14.5241 33.8512 14.6116 33.7928 14.6866C33.7341 14.7594 33.54 14.9991 33.3606 15.2172C33.2411 15.3622 33.1235 15.5088 33.0078 15.6569C32.8991 15.8253 32.8541 15.8141 32.5037 15.5444C32.2256 15.3284 31.5625 14.9194 31.4928 14.9194C31.4834 14.9194 31.3819 14.8766 31.2672 14.8231C30.6262 14.5228 28.8978 14.3494 28.54 14.5509C28.4962 14.5753 28.3606 14.6266 28.24 14.6644C27.0494 15.0319 26.61 16.4916 27.4341 17.3412C27.6928 17.6087 28.745 18.2397 28.9309 18.2397C28.9453 18.2397 29.0528 18.2825 29.1684 18.335C29.2847 18.3875 29.425 18.4437 29.48 18.4594C29.535 18.4753 29.6156 18.5106 29.6594 18.5375C29.7047 18.5656 29.8119 18.6109 29.9 18.6391C29.9875 18.6656 30.0966 18.7109 30.1406 18.7378C30.1844 18.7659 30.2919 18.8109 30.3797 18.8403C30.4675 18.8684 30.6031 18.9247 30.6797 18.9659C30.7556 19.0066 30.8328 19.0406 30.8484 19.0406C30.8641 19.0406 30.9766 19.0844 31.0962 19.1394C31.2172 19.1956 31.3244 19.2394 31.3378 19.2394C31.3856 19.2394 32.3731 19.7106 32.5378 19.8119C33.2594 20.255 33.8316 20.7519 34.1175 21.1806C34.2884 21.4369 34.5203 21.8712 34.5203 21.9372C34.5203 21.9653 34.5472 22.0434 34.5812 22.1106C34.6422 22.2325 34.7266 22.5966 34.8 23.0603C34.8475 23.3531 34.8487 24.0028 34.8034 24.2197C34.6681 24.8656 34.6203 25.0462 34.5216 25.2966C33.7975 27.1166 31.9203 28.2606 29.4603 28.38C28.8197 28.4119 27.3047 28.2544 27.1144 28.1362C27.0947 28.125 26.9481 28.0787 26.7894 28.0347C26.3453 27.9128 25.3772 27.495 25.0197 27.2706C24.3347 26.8394 23.9794 26.5759 23.6097 26.2231C23.4069 26.0303 23.4056 26.0156 23.5609 25.845C23.7465 25.6347 23.9292 25.4217 24.1087 25.2062C25.0987 24.0331 25.0844 24.0469 25.1769 24.1662C25.2003 24.1956 25.3456 24.32 25.5006 24.4434C25.7472 24.64 25.9216 24.7644 26.2806 25C26.4772 25.1294 27.2303 25.4812 27.4425 25.5444C27.5622 25.5797 27.6781 25.6225 27.7003 25.6384C27.7222 25.6556 27.9016 25.6994 28.1003 25.7359C28.2984 25.7728 28.5341 25.8216 28.6231 25.8447C29.2481 26.0047 30.6591 25.7397 31.1547 25.3687C32.0934 24.6644 32.1741 23.2469 31.3122 22.555C30.9631 22.2753 30.1941 21.8591 29.7997 21.7394C29.7176 21.7101 29.6377 21.675 29.5606 21.6344C29.4837 21.5931 29.4078 21.56 29.3909 21.56C29.3641 21.56 29.1759 21.4781 28.7 21.2609C28.6341 21.2306 28.4266 21.14 28.2397 21.0609C28.0707 20.9885 27.9027 20.9141 27.7356 20.8375C27.645 20.7947 27.5575 20.7606 27.5403 20.7606C27.5231 20.7606 27.285 20.6519 27.0116 20.5187C26.0094 20.0328 25.4359 19.575 24.8084 18.7625C24.2103 17.9859 23.9553 16.4247 24.2553 15.3797C24.9241 13.0516 27.3059 11.7078 30.2453 12.0019ZM9.64 18.0419V21.4441L10.7494 21.4294C12.5597 21.4062 13.2069 21.1437 13.8159 20.1881C14.4716 19.1612 14.5825 17.3219 14.0587 16.2122C14.0041 16.0987 13.96 15.9862 13.96 15.9622C13.96 15.9387 13.9444 15.9203 13.9247 15.9203C13.905 15.9203 13.8672 15.8656 13.8391 15.7984C13.7697 15.6297 13.2884 15.1537 13.0541 15.0219C12.4816 14.7 12.1228 14.64 10.7531 14.64H9.64V18.0419ZM17.2094 21.8044C19.0944 22.4412 18.4972 25.1903 16.5247 24.9575C14.9525 24.7719 14.6341 22.4597 16.0997 21.8775C16.1656 21.8519 16.2559 21.815 16.3 21.7969C16.5419 21.6981 16.9019 21.7003 17.2094 21.8041" fill="#1E232B"/>
<path fill-rule="evenodd" clip-rule="evenodd" d="M6.69832 12.0496C6.68832 12.0777 6.68488 14.7911 6.68957 18.0796L6.7005 24.0599L6.72019 18.0296C6.73113 14.713 6.73488 11.9993 6.72863 11.9993C6.72238 11.9993 6.70925 12.0227 6.69832 12.0493M11.7702 12.0286C11.8533 12.0374 11.9874 12.0374 12.0705 12.0286C12.1524 12.0202 12.0852 12.013 11.9205 12.013C11.7555 12.013 11.6871 12.0202 11.7705 12.0286M19.2593 17.8196C19.2593 21.0315 19.2643 22.3521 19.2702 20.753C19.2764 19.154 19.2764 16.5258 19.2702 14.9133C19.2639 13.2996 19.2593 14.608 19.2593 17.8196ZM21.9499 15.6493C21.9558 17.6574 21.9643 20.2183 21.9705 21.3402C21.9768 22.4621 21.9852 20.819 21.9911 17.6902C21.9961 14.5605 21.9861 11.9996 21.9705 11.9996C21.9533 11.9996 21.9449 13.6424 21.9496 15.6496M28.9505 12.0286C29.0224 12.0374 29.1311 12.0374 29.1911 12.0286C29.2505 12.019 29.1921 12.0118 29.0602 12.013C28.9283 12.013 28.8796 12.0202 28.9505 12.0286ZM29.6705 12.0286C29.7414 12.0374 29.8586 12.0374 29.9305 12.0286C30.0014 12.0202 29.943 12.013 29.7999 12.013C29.6571 12.013 29.5986 12.0202 29.6705 12.0286ZM25.3589 13.5499L25.1002 13.8199L25.3702 13.5611C25.5189 13.4193 25.6399 13.2974 25.6399 13.2911C25.6399 13.2621 25.5996 13.2999 25.3589 13.5499ZM29.1102 14.429C29.1593 14.4374 29.2408 14.4374 29.2899 14.429C29.3399 14.4193 29.2993 14.4105 29.2005 14.4105C29.1018 14.4105 29.0602 14.4193 29.1102 14.429ZM29.6302 14.429C29.6793 14.4374 29.7608 14.4374 29.8099 14.429C29.8599 14.4193 29.8193 14.4105 29.7205 14.4105C29.6218 14.4105 29.5802 14.4193 29.6302 14.429ZM9.57894 14.6108C9.56801 14.6377 9.56425 16.199 9.56957 18.0799L9.58019 21.5005L9.59988 18.0299C9.61082 16.1221 9.6155 14.5608 9.60832 14.5608C9.60207 14.5608 9.58894 14.5827 9.57894 14.6108ZM26.9693 16.0805C26.9693 16.1574 26.9777 16.1893 26.9874 16.1502C26.9972 16.1038 26.9972 16.0559 26.9874 16.0096C26.978 15.9721 26.9693 16.0033 26.9693 16.0805ZM24.1749 16.4602C24.1749 16.6799 24.1811 16.7652 24.1896 16.6493C24.1983 16.5321 24.1983 16.3527 24.1896 16.2493C24.1811 16.1452 24.1749 16.2405 24.1749 16.4602ZM26.9693 16.4796C26.9693 16.5565 26.9777 16.5883 26.9874 16.5505C26.9972 16.5042 26.9972 16.4563 26.9874 16.4099C26.978 16.3724 26.9693 16.4027 26.9693 16.4796ZM27.438 17.4099C27.5368 17.5149 27.6224 17.6005 27.6286 17.6005C27.6589 17.6005 27.6271 17.5649 27.4502 17.399L27.2596 17.2208L27.4377 17.4099M14.4168 17.9799C14.4168 18.3108 14.423 18.4402 14.4302 18.268C14.4374 18.0971 14.4374 17.8274 14.4302 17.6686C14.4227 17.5099 14.4168 17.6502 14.4168 17.9799ZM17.4549 17.9396C17.4549 18.1827 17.4624 18.2765 17.4696 18.1483C17.4783 18.0215 17.4783 17.8236 17.4696 17.709C17.4611 17.5943 17.4549 17.698 17.4549 17.9396ZM10.093 21.5099C10.3518 21.5171 10.7668 21.5171 11.0121 21.5099C11.2589 21.5027 11.0464 21.4965 10.5399 21.4977C10.0343 21.4977 9.83301 21.5027 10.093 21.5099ZM16.6899 21.7871C16.7359 21.798 16.7839 21.798 16.8299 21.7871C16.8689 21.7774 16.8374 21.7686 16.7605 21.7686C16.6836 21.7686 16.6518 21.7774 16.6896 21.7871M14.1996 23.2677C14.1883 23.3824 14.1946 23.4618 14.2127 23.4436C14.2314 23.4249 14.2396 23.3311 14.2324 23.2349L14.2189 23.0602L14.1993 23.2677M34.773 23.6399C34.773 23.8049 34.7805 23.8721 34.7889 23.7899C34.7975 23.6901 34.7975 23.5897 34.7889 23.4899C34.7805 23.4068 34.7733 23.4752 34.7733 23.6399M21.9289 23.6399C21.9289 23.7171 21.9374 23.7486 21.9471 23.7096C21.958 23.6639 21.958 23.6162 21.9471 23.5705C21.9377 23.5315 21.9289 23.563 21.9289 23.6399ZM7.953 24.0696C8.61957 24.0758 9.69988 24.0758 10.353 24.0696C11.0061 24.0633 10.4605 24.0586 9.13957 24.0586C7.81988 24.0586 7.28644 24.0636 7.953 24.0696ZM17.8186 24.4896L17.6602 24.6593L17.8299 24.5018C17.9886 24.3543 18.0189 24.3199 17.9886 24.3199C17.9824 24.3199 17.9055 24.3968 17.8189 24.4896M23.4805 26.0252C23.4805 26.0471 23.5389 26.118 23.6099 26.1827L23.7405 26.2999L23.6208 26.1593C23.5757 26.1086 23.5321 26.0564 23.4902 26.003C23.4852 25.9949 23.4805 26.0046 23.4805 26.0252ZM13.2789 26.8896C13.4439 27.0665 13.4805 27.0983 13.4805 27.0677C13.4805 27.0615 13.3949 26.9761 13.2899 26.8786L13.1008 26.7005L13.2789 26.8896ZM20.4396 26.9799C20.3433 27.0786 20.2724 27.1593 20.2833 27.1593C20.2943 27.1593 20.3833 27.0786 20.4802 26.9799C20.5777 26.8811 20.6483 26.8005 20.6374 26.8005C20.6264 26.8005 20.5374 26.8811 20.4396 26.9799ZM16.6102 28.3468C16.6564 28.3578 16.7046 28.3578 16.7508 28.3468C16.7883 28.3371 16.7571 28.3283 16.6799 28.3283C16.603 28.3283 16.5711 28.3371 16.6102 28.3468ZM29.0699 28.348C29.1199 28.3577 29.2005 28.3577 29.2508 28.348C29.2996 28.3383 29.2593 28.3308 29.1602 28.3308C29.0614 28.3308 29.0211 28.3383 29.0699 28.348Z" fill="#1E232B"/>
<path fill-rule="evenodd" clip-rule="evenodd" d="M11.6891 11.9875C11.7282 11.9969 11.7916 11.9969 11.8297 11.9875C11.8685 11.9775 11.8369 11.9688 11.7601 11.9688C11.6832 11.9688 11.6513 11.9775 11.6891 11.9875ZM9.6263 14.59C9.61537 14.6069 9.88005 14.6156 10.2135 14.6094C11.3182 14.5909 11.4304 14.5766 10.5322 14.5678C10.0438 14.5641 9.63599 14.5741 9.62599 14.5897M24.1307 16.46C24.1319 16.5697 24.1391 16.61 24.1488 16.5491C24.1576 16.4881 24.1576 16.3991 24.1476 16.35C24.1382 16.3 24.1307 16.35 24.1307 16.46ZM17.0297 28.3484C17.0797 28.3581 17.1516 28.3569 17.1897 28.3472C17.2288 28.3375 17.1872 28.33 17.0991 28.33C17.0116 28.33 16.981 28.3387 17.0297 28.3484Z" fill="#1E232B"/>
<path fill-rule="evenodd" clip-rule="evenodd" d="M7.95305 11.9896C8.64242 11.9959 9.75836 11.9959 10.4334 11.9896C11.1084 11.9834 10.5443 11.9787 9.17961 11.9787C7.81617 11.9787 7.2643 11.9837 7.95273 11.9896M19.9277 11.9896C20.294 11.9971 20.9068 11.9971 21.2877 11.9896C21.6687 11.9834 21.3684 11.9774 20.6199 11.9774C19.8718 11.9774 19.5605 11.9837 19.928 11.9899M29.3699 11.9871C29.4077 11.9971 29.4715 11.9971 29.5105 11.9871C29.548 11.9777 29.5168 11.969 29.4396 11.969C29.3627 11.969 29.3309 11.9774 29.3699 11.9871ZM31.9299 23.8999C31.9299 23.9881 31.9384 24.0196 31.948 23.9696C31.958 23.9196 31.958 23.8477 31.9468 23.8096C31.9374 23.7706 31.9299 23.8121 31.9299 23.9002M29.0905 25.9081C29.1502 25.9177 29.2493 25.9177 29.3102 25.9081C29.3699 25.8996 29.3212 25.8924 29.2002 25.8924C29.0796 25.8924 29.0296 25.8996 29.0905 25.9081Z" fill="#1E232B"/>
<path fill-rule="evenodd" clip-rule="evenodd" d="M25.3588 13.5094L25.1404 13.7403L25.3701 13.5215C25.497 13.4009 25.6007 13.2972 25.6007 13.2909C25.6007 13.2619 25.5616 13.2959 25.3588 13.5097M9.61914 18.05L9.62039 21.4594L11.4001 21.4622L9.64008 21.4378L9.63008 18.0394L9.61914 14.6394V18.0503M17.4916 17.9197C17.4916 18.0403 17.5001 18.0906 17.5085 18.0294C17.5183 17.9565 17.5183 17.8826 17.5085 17.8097C17.5001 17.7487 17.4916 17.7987 17.4916 17.9197ZM34.8098 23.6397C34.8098 23.7169 34.817 23.7484 34.8279 23.7094C34.8376 23.6635 34.8376 23.6161 34.8279 23.5703C34.817 23.5312 34.8098 23.5628 34.8098 23.6397ZM16.6504 25.8678C16.6882 25.8772 16.7516 25.8772 16.7898 25.8678C16.8288 25.8565 16.797 25.849 16.7201 25.849C16.6432 25.849 16.6113 25.8565 16.6504 25.8678ZM13.1995 26.8531C13.1995 26.8594 13.2582 26.9178 13.3301 26.9825L13.4595 27.0997L13.3423 26.9703C13.2326 26.8494 13.1995 26.8212 13.1995 26.8531ZM17.2901 28.3469C17.3363 28.3579 17.3845 28.3579 17.4307 28.3469C17.4682 28.3375 17.4366 28.3287 17.3598 28.3287C17.2829 28.3287 17.251 28.3375 17.2901 28.3472" fill="#1E232B"/>
<path fill-rule="evenodd" clip-rule="evenodd" d="M15.9179 13.5707C16.0166 13.6744 16.1022 13.7597 16.1082 13.7597C16.1388 13.7597 16.1069 13.7244 15.9301 13.5585L15.7394 13.3804L15.9176 13.5707M29.3697 14.4676C29.4076 14.4776 29.4713 14.4776 29.5104 14.4676C29.5479 14.4582 29.5166 14.4494 29.4394 14.4494C29.3626 14.4494 29.3307 14.4582 29.3697 14.4679M10.1316 14.6304C10.4135 14.6363 10.8641 14.6363 11.1326 14.6304C11.3997 14.6229 11.1691 14.6166 10.6201 14.6166C10.0694 14.6179 9.85068 14.6229 10.1316 14.6301M17.4901 18.3001C17.4901 18.3876 17.4985 18.4194 17.5082 18.3694C17.5176 18.3166 17.5171 18.2624 17.5069 18.2097C17.4976 18.1716 17.4888 18.2119 17.4901 18.3001ZM7.94974 24.1101C8.65912 24.1163 9.82005 24.1163 10.5291 24.1101C11.2385 24.1038 10.6585 24.0991 9.2388 24.0991C7.82037 24.0991 7.23943 24.1041 7.94974 24.1101ZM18.4576 25.1294L18.2991 25.3004L18.4697 25.1416C18.6272 24.9951 18.6579 24.9597 18.6272 24.9597C18.621 24.9597 18.5444 25.0366 18.4576 25.1294ZM16.4094 25.8276C16.4485 25.8376 16.5107 25.8376 16.5497 25.8276C16.5876 25.8182 16.556 25.8094 16.4788 25.8094C16.4019 25.8094 16.3716 25.8179 16.4094 25.8276ZM16.9294 25.8276C16.9685 25.8376 17.0307 25.8376 17.0697 25.8276C17.1076 25.8182 17.076 25.8094 16.9988 25.8094C16.9219 25.8094 16.8916 25.8179 16.9294 25.8276ZM28.7688 28.3876C28.8082 28.3972 28.8716 28.3972 28.9094 28.3876C28.9485 28.3779 28.9166 28.3691 28.8397 28.3691C28.7629 28.3691 28.731 28.3779 28.7688 28.3876Z" fill="#1E232B"/>
<path fill-rule="evenodd" clip-rule="evenodd" d="M16.6898 21.7482C16.7289 21.7579 16.7923 21.7579 16.8305 21.7482C16.8692 21.7372 16.8377 21.7297 16.7608 21.7297C16.6839 21.7297 16.652 21.7372 16.6898 21.7482ZM16.6105 28.3875C16.6483 28.3972 16.712 28.3972 16.7511 28.3875C16.7886 28.3779 16.7573 28.3691 16.6802 28.3691C16.6033 28.3691 16.5714 28.3779 16.6105 28.3875ZM29.0508 28.3888C29.1117 28.3985 29.202 28.3972 29.2508 28.3888C29.2998 28.3791 29.2508 28.3716 29.1398 28.3716C29.0302 28.3716 28.9898 28.3788 29.0508 28.3888Z" fill="#1E232B"/>
</svg>
