<svg width="19" height="17" viewBox="0 0 19 17" fill="none" xmlns="http://www.w3.org/2000/svg">
<path d="M2.5 16.6667V8.3125L0.75 9.64583L0 8.64583L2.5 6.75V4.375H3.75V5.79167L9.16667 1.66667L18.3333 8.66667L17.5833 9.64583L15.8333 8.3125V16.6667H2.5ZM3.75 15.4167H8.54167V12.0833H9.79167V15.4167H14.5833V7.35417L9.16667 3.22917L3.75 7.35417V15.4167ZM2.5 3.33333C2.5 2.69444 2.72569 2.15278 3.17708 1.70833C3.62847 1.26389 4.16667 1.04167 4.79167 1.04167C5.08681 1.04167 5.3342 0.9375 5.53385 0.729167C5.73351 0.520833 5.83333 0.277778 5.83333 0H7.08333C7.08333 0.625 6.86053 1.16319 6.41494 1.61458C5.96933 2.06597 5.42824 2.29167 4.79167 2.29167C4.51389 2.29167 4.27083 2.39149 4.0625 2.59115C3.85417 2.7908 3.75 3.03819 3.75 3.33333H2.5Z" fill="white"/>
</svg>
