<svg width="25" height="25" viewBox="0 0 25 25" fill="none" xmlns="http://www.w3.org/2000/svg">
<path d="M12.5006 0.5C9.24173 0.5 8.83275 0.51425 7.55279 0.5725C6.27533 0.631 5.40335 0.83325 4.64037 1.13C3.85115 1.4365 3.18167 1.8465 2.51469 2.51375C1.84721 3.18075 1.43722 3.85025 1.12973 4.63925C0.83224 5.4025 0.629746 6.27475 0.572248 7.55175C0.514999 8.83175 0.5 9.241 0.5 12.5C0.5 15.759 0.5145 16.1667 0.572498 17.4467C0.631246 18.7242 0.83349 19.5962 1.12998 20.3592C1.43672 21.1485 1.84671 21.818 2.51394 22.485C3.18067 23.1525 3.85015 23.5635 4.63887 23.87C5.40235 24.1667 6.27457 24.369 7.55179 24.4275C8.83175 24.4857 9.24049 24.5 12.4991 24.5C15.7583 24.5 16.166 24.4857 17.446 24.4275C18.7234 24.369 19.5964 24.1667 20.3599 23.87C21.1489 23.5635 21.8174 23.1525 22.4841 22.485C23.1516 21.818 23.5616 21.1485 23.869 20.3595C24.164 19.5962 24.3665 18.724 24.4265 17.447C24.484 16.167 24.499 15.759 24.499 12.5C24.499 9.241 24.484 8.832 24.4265 7.552C24.3665 6.2745 24.164 5.4025 23.869 4.6395C23.5616 3.85025 23.1516 3.18075 22.4841 2.51375C21.8166 1.84625 21.1491 1.43625 20.3591 1.13C19.5942 0.83325 18.7217 0.631 17.4442 0.5725C16.1643 0.51425 15.7568 0.5 12.4969 0.5H12.5006ZM11.4242 2.6625C11.7437 2.662 12.1001 2.6625 12.5006 2.6625C15.7045 2.6625 16.0843 2.674 17.3495 2.7315C18.5195 2.785 19.1544 2.9805 19.5774 3.14475C20.1374 3.36225 20.5366 3.62225 20.9564 4.04225C21.3764 4.46225 21.6364 4.86225 21.8544 5.42225C22.0186 5.84475 22.2143 6.47975 22.2676 7.64975C22.3251 8.91475 22.3376 9.29475 22.3376 12.4972C22.3376 15.6997 22.3251 16.0797 22.2676 17.3447C22.2141 18.5147 22.0186 19.1497 21.8544 19.5722C21.6369 20.1322 21.3764 20.531 20.9564 20.9507C20.5364 21.3707 20.1377 21.6307 19.5774 21.8482C19.1549 22.0132 18.5195 22.2082 17.3495 22.2617C16.0845 22.3192 15.7045 22.3317 12.5006 22.3317C9.29648 22.3317 8.91675 22.3192 7.65178 22.2617C6.48182 22.2077 5.84684 22.0122 5.4236 21.848C4.86362 21.6305 4.46363 21.3705 4.04364 20.9505C3.62366 20.5305 3.36366 20.1315 3.14567 19.5712C2.98142 19.1487 2.78568 18.5137 2.73243 17.3437C2.67493 16.0787 2.66343 15.6987 2.66343 12.4942C2.66343 9.28975 2.67493 8.91175 2.73243 7.64675C2.78593 6.47675 2.98142 5.84175 3.14567 5.41875C3.36316 4.85875 3.62366 4.45875 4.04364 4.03875C4.46363 3.61875 4.86362 3.35875 5.4236 3.14075C5.84659 2.97575 6.48182 2.78075 7.65178 2.727C8.75875 2.677 9.18774 2.662 11.4242 2.6595V2.6625ZM18.9059 4.655C18.111 4.655 17.466 5.29925 17.466 6.0945C17.466 6.8895 18.111 7.5345 18.9059 7.5345C19.7009 7.5345 20.3459 6.8895 20.3459 6.0945C20.3459 5.2995 19.7009 4.6545 18.9059 4.6545V4.655ZM12.5006 6.3375C9.09749 6.3375 6.33832 9.09675 6.33832 12.5C6.33832 15.9032 9.09749 18.6612 12.5006 18.6612C15.9038 18.6612 18.6619 15.9032 18.6619 12.5C18.6619 9.09675 15.9035 6.3375 12.5004 6.3375H12.5006ZM12.5006 8.5C14.7096 8.5 16.5005 10.2907 16.5005 12.5C16.5005 14.709 14.7096 16.5 12.5006 16.5C10.2915 16.5 8.50076 14.709 8.50076 12.5C8.50076 10.2907 10.2915 8.5 12.5006 8.5Z" fill="#1E232B"/>
</svg>
