<svg width="25" height="25" viewBox="0 0 25 25" fill="none" xmlns="http://www.w3.org/2000/svg">
<path fill-rule="evenodd" clip-rule="evenodd" d="M2.47166 0.812622C1.55533 0.812622 0.8125 1.55545 0.8125 2.47179V22.5284C0.8125 23.4447 1.55533 24.1876 2.47167 24.1876H22.5283C23.4447 24.1876 24.1875 23.4447 24.1875 22.5284V2.47179C24.1875 1.55546 23.4447 0.812622 22.5283 0.812622H2.47166ZM6.05911 8.07174C7.17902 8.07174 8.08689 7.16387 8.08689 6.04396C8.08689 4.92405 7.17902 4.01619 6.05911 4.01619C4.9392 4.01619 4.03134 4.92405 4.03134 6.04396C4.03134 7.16387 4.9392 8.07174 6.05911 8.07174ZM9.94399 9.57032H13.3047V11.1099C13.3047 11.1099 14.2166 9.28593 16.698 9.28593C18.9114 9.28593 20.745 10.3763 20.745 13.7V20.7085H17.2624V14.5492C17.2624 12.5886 16.2157 12.3729 15.418 12.3729C13.7627 12.3729 13.4793 13.8008 13.4793 14.805V20.7085H9.94399V9.57032ZM7.82678 9.57033H4.29145V20.7086H7.82678V9.57033Z" fill="#1E232B"/>
</svg>
