<svg width="25" height="25" viewBox="0 0 25 25" fill="none" xmlns="http://www.w3.org/2000/svg">
<path fill-rule="evenodd" clip-rule="evenodd" d="M12.8975 20.6378C14.4198 19.8509 19.7913 16.7028 19.7913 11.4583C19.7913 7.43122 16.5268 4.16663 12.4997 4.16663C8.4726 4.16663 5.20801 7.43122 5.20801 11.4583C5.20801 16.7028 10.5795 19.8509 12.1019 20.6378C12.3549 20.7686 12.6444 20.7686 12.8975 20.6378ZM12.4997 14.5833C14.2256 14.5833 15.6247 13.1842 15.6247 11.4583C15.6247 9.7324 14.2256 8.33329 12.4997 8.33329C10.7738 8.33329 9.37467 9.7324 9.37467 11.4583C9.37467 13.1842 10.7738 14.5833 12.4997 14.5833Z" fill="#222222"/>
</svg>