<svg width="31" height="31" viewBox="0 0 31 31" fill="none" xmlns="http://www.w3.org/2000/svg">
<path fill-rule="evenodd" clip-rule="evenodd" d="M15.9014 25.6381C17.6531 24.747 24.5418 20.8219 24.5418 14.2083C24.5418 9.21475 20.4937 5.16666 15.5002 5.16666C10.5066 5.16666 6.4585 9.21475 6.4585 14.2083C6.4585 20.8219 13.3472 24.747 15.0989 25.6381C15.3528 25.7673 15.6476 25.7673 15.9014 25.6381ZM15.5002 18.0833C17.6403 18.0833 19.3752 16.3484 19.3752 14.2083C19.3752 12.0682 17.6403 10.3333 15.5002 10.3333C13.3601 10.3333 11.6252 12.0682 11.6252 14.2083C11.6252 16.3484 13.3601 18.0833 15.5002 18.0833Z" fill="#F6F7EB"/>
</svg>
