<svg width="26" height="23" viewBox="0 0 26 23" fill="none" xmlns="http://www.w3.org/2000/svg">
<path fill-rule="evenodd" clip-rule="evenodd" d="M23.186 6.12187C23.1954 6.36234 23.1985 6.60271 23.1985 6.84317C23.1985 14.1337 18.0699 22.5502 8.69164 22.5502C5.81079 22.5502 3.13201 21.632 0.875 20.069C1.27397 20.1127 1.67916 20.1456 2.09056 20.1456C4.47918 20.1456 6.67919 19.26 8.42428 17.7735C6.19318 17.7407 4.30923 16.1339 3.65949 13.9479C3.97141 14.0135 4.29263 14.0464 4.62113 14.0464C5.08435 14.0464 5.53409 13.9808 5.96518 13.8497C3.63045 13.3469 1.8719 11.1172 1.8719 8.43922C1.8719 8.40643 1.8719 8.39544 1.8719 8.37358C2.55999 8.778 3.34755 9.02927 4.18383 9.06206C2.81387 8.0674 1.91333 6.37324 1.91333 4.46044C1.91333 3.45485 2.16411 2.50387 2.60556 1.68409C5.11957 5.02877 8.87818 7.2258 13.1155 7.45534C13.0285 7.05091 12.9839 6.62474 12.9839 6.19845C12.9839 3.1489 15.2668 0.678589 18.0834 0.678589C19.5497 0.678589 20.8741 1.34543 21.8036 2.41661C22.9674 2.17614 24.0575 1.7171 25.0441 1.08314C24.6617 2.37292 23.8544 3.45479 22.7995 4.13247C23.8316 4.00131 24.8161 3.70642 25.7291 3.2692C25.0441 4.37317 24.1819 5.34582 23.186 6.12187Z" fill="#1E232B"/>
</svg>
